<svg aria-hidden="true" style="position: absolute; width: 0; height: 0; overflow: hidden;" version="1.1" xmlns="http://www.w3.org/2000/svg" xmlns:xlink="http://www.w3.org/1999/xlink">
<defs>
<symbol id="icon-grid" viewBox="0 0 32 32">
<path d="M8 12h4v-4h-4v4zM14 12h4v-4h-4v4zM20 8v4h4v-4h-4zM8 18h4v-4h-4v4zM14 18h4v-4h-4v4zM20 18h4v-4h-4v4zM8 24h4v-4h-4v4zM14 24h4v-4h-4v4zM20 24h4v-4h-4v4z"></path>
</symbol>
<symbol id="icon-bell1" viewBox="0 0 24 24">
<path d="M19.715 17.301c-0.017-0.018-1.717-1.854-1.73-6.32-0.009-2.607-1.69-4.824-4.019-5.641 0.018-0.111 0.034-0.223 0.034-0.34 0-1.103-0.896-2-2-2s-2 0.897-2 2c0 0.116 0.016 0.228 0.034 0.338-2.336 0.816-4.019 3.036-4.019 5.646 0 4.462-1.711 6.296-1.721 6.306-0.287 0.286-0.374 0.716-0.22 1.091s0.521 0.619 0.926 0.619h3.143c0.447 1.72 1.999 3 3.857 3s3.41-1.28 3.857-3h3.143c0.4 0 0.758-0.243 0.915-0.61s0.076-0.799-0.2-1.089zM12 7c2.189 0 3.978 1.789 3.984 3.987 0.002 0.728 0.046 1.396 0.118 2.013h-8.2c0.071-0.617 0.113-1.286 0.113-2.016 0.001-2.196 1.788-3.984 3.985-3.984zM12 20c-0.737 0-1.375-0.405-1.722-1h3.443c-0.346 0.595-0.984 1-1.721 1zM6.814 17c0.352-0.736 0.705-1.731 0.938-3h8.502c0.234 1.269 0.588 2.264 0.938 3h-10.378z"></path>
</symbol>
<symbol id="icon-home" viewBox="0 0 20 20">
<path d="M18.672 11h-1.672v6c0 0.445-0.194 1-1 1h-4v-6h-4v6h-4c-0.806 0-1-0.555-1-1v-6h-1.672c-0.598 0-0.47-0.324-0.060-0.748l8.024-8.032c0.195-0.202 0.451-0.302 0.708-0.312 0.257 0.010 0.513 0.109 0.708 0.312l8.023 8.031c0.411 0.425 0.539 0.749-0.059 0.749z"></path>
</symbol>
<symbol id="icon-suitcase" viewBox="0 0 20 20">
<path d="M18 4h-1v15h1c1.1 0 2-0.9 2-2v-11c0-1.1-0.9-2-2-2zM0 6v11c0 1.1 0.899 2 2 2h1v-15h-1c-1.101 0-2 0.9-2 2zM13.5 1.906c-0.681-0.316-1.889-0.906-3.519-0.906-1.633 0-2.8 0.59-3.481 0.906v2.094h-2.5v15h12v-15h-2.5v-2.094zM12 4h-4v-1.336c0.534-0.23 1.078-0.465 1.981-0.465s1.486 0.234 2.019 0.465v1.336z"></path>
</symbol>
<symbol id="icon-portfolio" viewBox="0 0 16 16">
<path d="M15 3h-4v-2c0-0.553-0.448-1-1-1h-4c-0.552 0-1 0.447-1 1v2h-4c-0.552 0-1 0.447-1 1v11c0 0.553 0.448 1 1 1h14c0.552 0 1-0.447 1-1v-11c0-0.553-0.448-1-1-1zM7 2h2v1h-2v-1zM14 14h-12v-4h4v1h4v-1h4v4zM14 9h-4v-1h-4v1h-4v-4h12v4z"></path>
</symbol>
<symbol id="icon-typing" viewBox="0 0 20 20">
<path d="M16 4h-12c-1.101 0-2 0.9-2 2v7c0 1.1 0.899 2 2 2h4l4 3v-3h4c1.1 0 2-0.9 2-2v-7c0-1.1-0.9-2-2-2zM6 10.6c-0.607 0-1.1-0.492-1.1-1.1s0.492-1.1 1.1-1.1 1.1 0.492 1.1 1.1c0 0.607-0.493 1.1-1.1 1.1zM10 10.6c-0.607 0-1.1-0.492-1.1-1.1s0.492-1.1 1.1-1.1 1.1 0.492 1.1 1.1c0 0.607-0.493 1.1-1.1 1.1zM14 10.6c-0.607 0-1.1-0.492-1.1-1.1s0.492-1.1 1.1-1.1 1.1 0.492 1.1 1.1c0 0.607-0.493 1.1-1.1 1.1z"></path>
</symbol>
<symbol id="icon-users" viewBox="0 0 20 20">
<path d="M15.989 19.129c0-2.246-2.187-3.389-4.317-4.307-2.123-0.914-2.801-1.684-2.801-3.334 0-0.989 0.648-0.667 0.932-2.481 0.12-0.752 0.692-0.012 0.802-1.729 0-0.684-0.313-0.854-0.313-0.854s0.159-1.013 0.221-1.793c0.064-0.817-0.398-2.56-2.301-3.095-0.332-0.341-0.557-0.882 0.467-1.424-2.24-0.104-2.761 1.068-3.954 1.93-1.015 0.756-1.289 1.953-1.24 2.59 0.065 0.78 0.223 1.793 0.223 1.793s-0.314 0.17-0.314 0.854c0.11 1.718 0.684 0.977 0.803 1.729 0.284 1.814 0.933 1.492 0.933 2.481 0 1.65-0.212 2.21-2.336 3.124-2.131 0.917-2.794 2.387-2.783 4.516 0.003 0.637-0.011 0.871-0.011 0.871h16c0 0-0.011-0.234-0.011-0.871zM18.528 13.365c-1.135-0.457-1.605-1.002-1.605-2.066 0-0.641 0.418-0.432 0.602-1.603 0.077-0.484 0.447-0.008 0.518-1.115 0-0.441-0.202-0.551-0.202-0.551s0.103-0.656 0.143-1.159c0.050-0.627-0.364-2.247-2.268-2.247s-2.318 1.62-2.269 2.247c0.042 0.502 0.144 1.159 0.144 1.159s-0.202 0.109-0.202 0.551c0.071 1.107 0.441 0.631 0.518 1.115 0.184 1.172 0.602 0.963 0.602 1.603 0 1.064-0.438 1.562-1.809 2.152-0.069 0.029-0.12 0.068-0.183 0.102 1.64 0.712 4.226 1.941 4.838 4.447h2.645c0 0 0-1.906 0-2.318 0-1-0.273-1.834-1.472-2.317z"></path>
</symbol>
<symbol id="icon-magnifying-glass" viewBox="0 0 20 20">
<path d="M17.545 15.467l-3.779-3.779c0.57-0.935 0.898-2.035 0.898-3.21 0-3.417-2.961-6.377-6.378-6.377s-6.186 2.769-6.186 6.186c0 3.416 2.961 6.377 6.377 6.377 1.137 0 2.2-0.309 3.115-0.844l3.799 3.801c0.372 0.371 0.975 0.371 1.346 0l0.943-0.943c0.371-0.371 0.236-0.84-0.135-1.211zM4.004 8.287c0-2.366 1.917-4.283 4.282-4.283s4.474 2.107 4.474 4.474c0 2.365-1.918 4.283-4.283 4.283s-4.473-2.109-4.473-4.474z"></path>
</symbol>
<symbol id="icon-qrcode" viewBox="0 0 32 32">
<path d="M10 2h-8v8h8v-8zM12 0v0 12h-12v-12h12zM4 4h4v4h-4zM30 2h-8v8h8v-8zM32 0v0 12h-12v-12h12zM24 4h4v4h-4zM10 22h-8v8h8v-8zM12 20v0 12h-12v-12h12zM4 24h4v4h-4zM14 0h2v2h-2zM16 2h2v2h-2zM14 4h2v2h-2zM16 6h2v2h-2zM14 8h2v2h-2zM16 10h2v2h-2zM14 12h2v2h-2zM14 16h2v2h-2zM16 18h2v2h-2zM14 20h2v2h-2zM16 22h2v2h-2zM14 24h2v2h-2zM16 26h2v2h-2zM14 28h2v2h-2zM16 30h2v2h-2zM30 16h2v2h-2zM2 16h2v2h-2zM4 14h2v2h-2zM0 14h2v2h-2zM8 14h2v2h-2zM10 16h2v2h-2zM12 14h2v2h-2zM18 16h2v2h-2zM20 14h2v2h-2zM22 16h2v2h-2zM24 14h2v2h-2zM26 16h2v2h-2zM28 14h2v2h-2zM30 20h2v2h-2zM18 20h2v2h-2zM20 18h2v2h-2zM22 20h2v2h-2zM26 20h2v2h-2zM28 18h2v2h-2zM30 24h2v2h-2zM18 24h2v2h-2zM20 22h2v2h-2zM24 22h2v2h-2zM26 24h2v2h-2zM28 22h2v2h-2zM30 28h2v2h-2zM20 26h2v2h-2zM22 28h2v2h-2zM24 26h2v2h-2zM26 28h2v2h-2zM20 30h2v2h-2zM24 30h2v2h-2zM28 30h2v2h-2z"></path>
</symbol>
<symbol id="icon-caret-down" viewBox="0 0 16 28">
<path d="M16 11c0 0.266-0.109 0.516-0.297 0.703l-7 7c-0.187 0.187-0.438 0.297-0.703 0.297s-0.516-0.109-0.703-0.297l-7-7c-0.187-0.187-0.297-0.438-0.297-0.703 0-0.547 0.453-1 1-1h14c0.547 0 1 0.453 1 1z"></path>
</symbol>
<symbol id="icon-dots-three-horizontal" viewBox="0 0 20 20">
<path d="M10.001 7.8c-1.215 0-2.201 0.985-2.201 2.2s0.986 2.2 2.201 2.2c1.215 0 2.199-0.985 2.199-2.2s-0.984-2.2-2.199-2.2zM3.001 7.8c-1.215 0-2.201 0.985-2.201 2.2s0.986 2.2 2.201 2.2c1.215 0 2.199-0.986 2.199-2.2s-0.984-2.2-2.199-2.2zM17.001 7.8c-1.215 0-2.201 0.985-2.201 2.2s0.986 2.2 2.201 2.2c1.215 0 2.199-0.985 2.199-2.2s-0.984-2.2-2.199-2.2z"></path>
</symbol>
<symbol id="icon-linkedin" viewBox="0 0 32 32">
<path fill="#0077b5" style="fill: var(--color1, #0077b5)" d="M27.263 27.269h-4.739v-7.425c0-1.771-0.036-4.049-2.469-4.049-2.471 0-2.848 1.927-2.848 3.919v7.556h-4.739v-15.269h4.552v2.081h0.061c0.636-1.2 2.183-2.467 4.493-2.467 4.801 0 5.689 3.16 5.689 7.273zM7.116 9.911c-1.525 0-2.751-1.235-2.751-2.753 0-1.517 1.227-2.751 2.751-2.751 1.52 0 2.752 1.233 2.752 2.751 0 1.519-1.233 2.753-2.752 2.753zM9.492 27.269h-4.752v-15.269h4.752zM29.633 0h-27.272c-1.305 0-2.361 1.032-2.361 2.305v27.389c0 1.275 1.056 2.305 2.361 2.305h27.268c1.304 0 2.371-1.031 2.371-2.305v-27.389c0-1.273-1.067-2.305-2.371-2.305z"></path>
</symbol>
<symbol id="icon-plus1" viewBox="0 0 20 20">
<path d="M16 10c0 0.553-0.048 1-0.601 1h-4.399v4.399c0 0.552-0.447 0.601-1 0.601s-1-0.049-1-0.601v-4.399h-4.399c-0.552 0-0.601-0.447-0.601-1s0.049-1 0.601-1h4.399v-4.399c0-0.553 0.447-0.601 1-0.601s1 0.048 1 0.601v4.399h4.399c0.553 0 0.601 0.447 0.601 1z"></path>
</symbol>
<symbol id="icon-comments" viewBox="0 0 16 16">
<path d="M12 7h-8v2h8zM12 4h-8v2h8zM1 0h14c0.553 0 1 0.447 1 1v11c0 0.553-0.447 1-1 1h-2v3l-4.5-3h-7.5c-0.553 0-1-0.447-1-1v-11c0-0.553 0.447-1 1-1zM2 11h6.5l2.5 1.5v-1.5h3v-9h-12v9z"></path>
</symbol>
<symbol id="icon-like" viewBox="0 0 32 32">
<path d="M2.836 10.472c1.25-0.328 4.189-0.324 8.488-0.438-0.203-0.938-0.25-1.784-0.25-3.286 0-3.588 2.614-6.748 4.926-6.748 1.633 0 2.979 1.335 3 2.977 0.022 2.014 0.645 5.492 4 7.256 0.246 0.13 0.95 0.477 1.053 0.522l-0.053 0.045c0.525-0.453 1.253-0.8 2-0.8h3c1.654 0 3 1.346 3 3v16c0 1.654-1.346 3-3 3h-3c-1.19 0-2.186-0.719-2.668-1.727-0.012 0.004-0.033 0.010-0.047 0.012-0.066 0.018-0.144 0.037-0.239 0.062-0.018 0.005-0.027 0.007-0.046 0.012-0.576 0.143-1.685 0.408-4.055 0.953-0.508 0.116-3.192 0.688-5.972 0.688h-5.467c-1.666 0-2.867-0.641-3.582-1.928-0.010-0.020-0.24-0.469-0.428-1.076-0.141-0.457-0.193-1.104-0.023-1.76-1.074-0.738-1.42-1.854-1.645-2.58-0.377-1.191-0.264-2.086-0.002-2.727-0.604-0.57-1.119-1.439-1.336-2.766-0.135-0.822 0.010-1.668 0.389-2.372-0.566-0.636-0.824-1.436-0.854-2.176l-0.012-0.209c-0.007-0.131-0.013-0.212-0.013-0.5 0-1.263 0.875-2.874 2.836-3.434zM25 29c0 0.553 0.447 1 1 1h3c0.553 0 1-0.447 1-1v-16c0-0.553-0.447-1-1-1h-3c-0.553 0-1 0.447-1 1v16zM2.023 14.535c0.020 0.494 0.227 1.465 1.977 1.465 1.5 0 2 0 2 0 0.277 0 0.5 0.224 0.5 0.5s-0.223 0.5-0.5 0.5c0 0-0.438 0-1.938 0s-1.697 1.244-1.6 1.844c0.124 0.746 0.474 2.156 2.163 2.156 1.687 0 2.375 0 2.375 0 0.277 0 0.5 0.223 0.5 0.5 0 0.275-0.223 0.5-0.5 0.5 0 0-1.188 0-1.969 0-1.688 0-1.539 1.287-1.297 2.055 0.319 1.009 0.514 1.945 2.641 1.945 0.719 0 1.631 0 1.631 0 0.277 0 0.5 0.223 0.5 0.5 0 0.275-0.223 0.5-0.5 0.5 0 0-0.693 0-1.568 0-1.094 0-1.145 1.035-1.031 1.406 0.125 0.406 0.273 0.707 0.279 0.721 0.302 0.545 0.789 0.873 1.82 0.873h5.467c2.746 0 5.47-0.623 5.54-0.639 4.154-0.957 4.373-1.031 4.634-1.105 0 0 0.846-0.143 0.846-0.881l0.007-13.812c0-0.469-0.299-0.893-0.794-1.042-0.062-0.024-0.146-0.050-0.206-0.075-4.568-1.892-5.959-6.040-6-9.446-0.006-0.479-0.375-1-1-1-1.057 0-2.926 2.122-2.926 4.748 0 2.371 0.096 2.781 0.926 5.252-10 0-9.93 0.144-10.812 0.375-1.094 0.313-1.188 1.219-1.188 1.531 0 0.343 0.010 0.293 0.023 0.629zM27.5 26c0.828 0 1.5 0.672 1.5 1.5s-0.672 1.5-1.5 1.5-1.5-0.672-1.5-1.5 0.672-1.5 1.5-1.5zM27.5 28c0.275 0 0.5-0.225 0.5-0.5s-0.225-0.5-0.5-0.5-0.5 0.225-0.5 0.5 0.225 0.5 0.5 0.5z"></path>
</symbol>
<symbol id="icon-paperplane" viewBox="0 0 32 32">
<path d="M31.543 0.16c-0.166-0.107-0.355-0.16-0.543-0.16-0.193 0-0.387 0.055-0.555 0.168l-30 20c-0.309 0.205-0.479 0.566-0.439 0.936 0.038 0.369 0.278 0.688 0.623 0.824l7.824 3.131 3.679 6.438c0.176 0.309 0.503 0.5 0.857 0.504 0.004 0 0.007 0 0.011 0 0.351 0 0.677-0.186 0.857-0.486l2.077-3.463 9.695 3.877c0.119 0.048 0.244 0.071 0.371 0.071 0.17 0 0.338-0.043 0.49-0.129 0.264-0.148 0.445-0.408 0.496-0.707l5-30c0.065-0.393-0.109-0.787-0.443-1.004zM3.136 20.777l23.175-15.451-16.85 18.037c-0.089-0.053-0.168-0.123-0.266-0.162l-6.059-2.424zM10.189 24.066c-0.002-0.004-0.005-0.006-0.007-0.010l18.943-20.275-16.149 25.162-2.787-4.877zM25.217 29.609l-8.541-3.416c-0.203-0.080-0.414-0.107-0.623-0.119l13.152-20.388-3.988 23.923z"></path>
</symbol>
<symbol id="icon-redo2" viewBox="0 0 16 16">
<path d="M9 3.881v-3.881l6 6-6 6v-3.966c-6.98-0.164-6.681 4.747-4.904 7.966-4.386-4.741-3.455-12.337 4.904-12.119z"></path>
</symbol>
<symbol id="icon-chevron-down" viewBox="0 0 20 20">
<path d="M4.516 7.548c0.436-0.446 1.043-0.481 1.576 0l3.908 3.747 3.908-3.747c0.533-0.481 1.141-0.446 1.574 0 0.436 0.445 0.408 1.197 0 1.615-0.406 0.418-4.695 4.502-4.695 4.502-0.217 0.223-0.502 0.335-0.787 0.335s-0.57-0.112-0.789-0.335c0 0-4.287-4.084-4.695-4.502s-0.436-1.17 0-1.615z"></path>
</symbol>
<symbol id="icon-menu" viewBox="0 0 20 20">
<path d="M0 3h20v2h-20v-2zM0 9h20v2h-20v-2zM0 15h20v2h-20v-2z"></path>
</symbol>
<symbol id="icon-comments1" viewBox="0 0 16 16">
<path d="M12 7h-8v2h8zM12 4h-8v2h8zM1 0h14c0.553 0 1 0.447 1 1v11c0 0.553-0.447 1-1 1h-2v3l-4.5-3h-7.5c-0.553 0-1-0.447-1-1v-11c0-0.553 0.447-1 1-1zM2 11h6.5l2.5 1.5v-1.5h3v-9h-12v9z"></path>
</symbol>
<symbol id="icon-add-outline" viewBox="0 0 20 20">
<path d="M11 9h4v2h-4v4h-2v-4h-4v-2h4v-4h2v4zM10 20c-5.523 0-10-4.477-10-10s4.477-10 10-10v0c5.523 0 10 4.477 10 10s-4.477 10-10 10v0zM10 18c4.418 0 8-3.582 8-8s-3.582-8-8-8v0c-4.418 0-8 3.582-8 8s3.582 8 8 8v0z"></path>
</symbol>
</defs>
</svg>
